<?xml version="1.0" standalone="no"?>
<!DOCTYPE svg PUBLIC "-//W3C//DTD SVG 20010904//EN"
 "http://www.w3.org/TR/2001/REC-SVG-20010904/DTD/svg10.dtd">
<svg version="1.0" xmlns="http://www.w3.org/2000/svg"
 width="128.000000pt" height="128.000000pt" viewBox="0 0 128.000000 128.000000"
 preserveAspectRatio="xMidYMid meet">
<metadata>
Created by potrace 1.15, written by Peter Selinger 2001-2017
</metadata>
<g transform="translate(0.000000,128.000000) scale(0.100000,-0.100000)"
fill="#1883B2" stroke="none">
<path d="M0 795 l0 -155 55 0 55 0 0 -220 0 -220 585 0 585 0 0 253 0 253 -53
120 -53 119 -587 3 -587 2 0 -155z m510 0 l0 -105 -230 0 -230 0 0 105 0 105
230 0 230 0 0 -105z m290 30 l0 -75 -120 0 -120 0 0 75 0 75 120 0 120 0 0
-75z m330 -30 l0 -105 -140 0 -140 0 0 105 0 105 140 0 140 0 0 -105z m-330
-205 l0 -110 -120 0 -120 0 0 110 0 110 120 0 120 0 0 -110z m-290 -30 l0 -80
-175 0 -175 0 0 80 0 80 175 0 175 0 0 -80z m510 0 l0 -80 -85 0 -85 0 0 80 0
80 85 0 85 0 0 -80z m210 -115 l0 -195 -80 0 -80 0 0 195 0 195 80 0 80 0 0
-195z m-210 -105 l0 -90 -430 0 -430 0 0 90 0 90 430 0 430 0 0 -90z"/>
</g>
</svg>
