<?xml version="1.0" standalone="no"?>
<!DOCTYPE svg PUBLIC "-//W3C//DTD SVG 20010904//EN"
 "http://www.w3.org/TR/2001/REC-SVG-20010904/DTD/svg10.dtd">
<svg version="1.0" xmlns="http://www.w3.org/2000/svg"
 width="128.000000pt" height="128.000000pt" viewBox="0 0 128.000000 128.000000"
 preserveAspectRatio="xMidYMid meet">
<metadata>
Created by potrace 1.15, written by Peter Selinger 2001-2017
</metadata>
<g transform="translate(0.000000,128.000000) scale(0.100000,-0.100000)"
fill="#1883B2" stroke="none">
<path d="M225 908 c-104 -33 -198 -67 -207 -75 -15 -14 -18 -34 -18 -142 l1
-126 421 -187 422 -188 22 21 c16 15 24 35 26 67 l3 46 181 85 c183 87 216
110 193 137 -6 7 -9 26 -6 41 3 16 7 36 9 46 3 15 -62 43 -417 177 -231 88
-424 159 -430 159 -5 -1 -95 -28 -200 -61z m556 -145 c186 -71 339 -130 339
-133 0 -3 -60 -35 -132 -71 l-133 -66 -325 143 c-179 79 -338 149 -355 157
-30 14 -30 14 95 55 69 22 135 41 148 41 13 1 176 -56 363 -126z m-326 -171
l360 -159 3 -76 3 -77 -58 25 c-32 15 -201 90 -375 168 l-318 141 0 73 c0 54
3 71 13 68 6 -3 174 -76 372 -163z"/>
</g>
</svg>
